<?xml version="1.0" encoding="UTF-8" standalone="no"?>
<!-- Created with Inkscape (http://www.inkscape.org/) -->

<svg
   xmlns:dc="http://purl.org/dc/elements/1.1/"
   xmlns:cc="http://creativecommons.org/ns#"
   xmlns:rdf="http://www.w3.org/1999/02/22-rdf-syntax-ns#"
   xmlns:svg="http://www.w3.org/2000/svg"
   xmlns="http://www.w3.org/2000/svg"
   xmlns:xlink="http://www.w3.org/1999/xlink"
   xmlns:sodipodi="http://sodipodi.sourceforge.net/DTD/sodipodi-0.dtd"
   xmlns:inkscape="http://www.inkscape.org/namespaces/inkscape"
   inkscape:export-ydpi="90.000000"
   inkscape:export-xdpi="90.000000"
   width="16"
   height="16"
   id="svg11300"
   sodipodi:version="0.32"
   inkscape:version="0.48.4 r9939"
   sodipodi:docname="radiobutton-checked-focused.svg"
   inkscape:output_extension="org.inkscape.output.svg.inkscape"
   version="1.0"
   style="display:inline;enable-background:new">
  <sodipodi:namedview
     stroke="#ef2929"
     fill="#f57900"
     id="base"
     pagecolor="#8c8c8c"
     bordercolor="#ff5e00"
     borderopacity="1"
     inkscape:pageopacity="1"
     inkscape:pageshadow="2"
     inkscape:zoom="48.5"
     inkscape:cx="8"
     inkscape:cy="8"
     inkscape:current-layer="layer1"
     showgrid="true"
     inkscape:grid-bbox="true"
     inkscape:document-units="px"
     inkscape:showpageshadow="false"
     inkscape:window-width="1600"
     inkscape:window-height="846"
     inkscape:window-x="0"
     inkscape:window-y="25"
     width="400px"
     height="300px"
     inkscape:snap-nodes="true"
     inkscape:snap-bbox="true"
     gridtolerance="10000"
     inkscape:object-nodes="false"
     inkscape:snap-grids="true"
     showguides="true"
     inkscape:guide-bbox="true"
     inkscape:window-maximized="1"
     inkscape:bbox-nodes="true"
     inkscape:bbox-paths="false"
     inkscape:snap-bbox-edge-midpoints="false"
     inkscape:snap-bbox-midpoints="false"
     objecttolerance="10000"
     guidetolerance="10000"
     borderlayer="true"
     showborder="true"
     guidecolor="#ff0b00"
     guideopacity="1"
     guidehicolor="#001aff"
     guidehiopacity="0.49803922"
     inkscape:object-paths="false"
     inkscape:snap-intersection-paths="true"
     inkscape:snap-smooth-nodes="false"
     inkscape:snap-midpoints="false"
     inkscape:snap-global="true"
     inkscape:snap-page="false">
    <inkscape:grid
       type="xygrid"
       id="grid3123"
       empspacing="4"
       visible="true"
       enabled="true"
       snapvisiblegridlinesonly="true" />
  </sodipodi:namedview>
  <defs
     id="defs3">
    <linearGradient
       id="linearGradient3992-4-9">
      <stop
         style="stop-color:#505050;stop-opacity:1;"
         offset="0"
         id="stop3994-7-9" />
      <stop
         style="stop-color:#3c3c3c;stop-opacity:1"
         offset="1"
         id="stop3996-2-5" />
    </linearGradient>
    <linearGradient
       inkscape:collect="always"
       xlink:href="#linearGradient3992-4-9"
       id="linearGradient4256"
       gradientUnits="userSpaceOnUse"
       x1="15"
       y1="15"
       x2="15"
       y2="2.220446e-16" />
    <linearGradient
       inkscape:collect="always"
       xlink:href="#linearGradient3992-4-9"
       id="linearGradient4317"
       gradientUnits="userSpaceOnUse"
       x1="15"
       y1="15"
       x2="15"
       y2="2.220446e-16" />
  </defs>
  <metadata
     id="metadata4">
    <rdf:RDF>
      <cc:Work
         rdf:about="">
        <dc:format>image/svg+xml</dc:format>
        <dc:type
           rdf:resource="http://purl.org/dc/dcmitype/StillImage" />
        <dc:creator>
          <cc:Agent>
            <dc:title />
          </cc:Agent>
        </dc:creator>
        <dc:source />
        <cc:license
           rdf:resource="" />
        <dc:title />
        <dc:subject>
          <rdf:Bag />
        </dc:subject>
        <dc:date />
        <dc:rights>
          <cc:Agent>
            <dc:title />
          </cc:Agent>
        </dc:rights>
        <dc:publisher>
          <cc:Agent>
            <dc:title />
          </cc:Agent>
        </dc:publisher>
        <dc:identifier />
        <dc:relation />
        <dc:language />
        <dc:coverage />
        <dc:description />
        <dc:contributor>
          <cc:Agent>
            <dc:title />
          </cc:Agent>
        </dc:contributor>
      </cc:Work>
      <cc:Work
         rdf:about="">
        <dc:format>image/svg+xml</dc:format>
        <dc:type
           rdf:resource="http://purl.org/dc/dcmitype/StillImage" />
      </cc:Work>
    </rdf:RDF>
  </metadata>
  <g
     style="display:inline"
     inkscape:groupmode="layer"
     inkscape:label="Base"
     id="layer1"
     transform="translate(0,-284)">
    <path
       style="opacity:0.40000000000000002;fill:#141414;fill-opacity:1"
       d="m 8,286 c -3.3137087,0 -6,2.68629 -6,6 0,3.31371 2.6862913,6 6,6 3.313709,0 6,-2.68629 6,-6 0,-3.31371 -2.686291,-6 -6,-6 z"
       id="path2986"
       inkscape:connector-curvature="0" />
    <path
       style="opacity:0.8;fill:#000000;fill-opacity:1"
       d="M 8 2 C 4.6862913 2 2 4.68629 2 8 C 2 11.31371 4.6862913 14 8 14 C 11.313709 14 14 11.31371 14 8 C 14 4.68629 11.313709 2 8 2 z M 8 3 C 10.761424 3 13 5.23857 13 8 C 13 10.76143 10.761424 13 8 13 C 5.2385761 13 3 10.76143 3 8 C 3 5.23857 5.2385761 3 8 3 z "
       id="path4477"
       transform="translate(0,284)" />
    <path
       style="opacity:0.1;fill:#ffffff;fill-opacity:1"
       d="M 8 1 C 4.1340065 1 1 4.134 1 8 C 1 11.86599 4.1340065 15 8 15 C 11.865994 15 15 11.86599 15 8 C 15 4.134 11.865994 1 8 1 z M 8 2 C 11.313709 2 14 4.68629 14 8 C 14 11.31371 11.313709 14 8 14 C 4.6862913 14 2 11.31371 2 8 C 2 4.68629 4.6862913 2 8 2 z "
       transform="translate(0,284)"
       id="path4482" />
    <path
       inkscape:connector-curvature="0"
       id="path4557"
       d="m 8,289 c -1.6568544,0 -3,1.34314 -3,3 0,1.65685 1.3431456,3 3,3 1.6568545,0 3,-1.34315 3,-3 0,-1.65686 -1.3431455,-3 -3,-3 z"
       style="opacity:0.8;fill:#ffffff;fill-opacity:1" />
    <path
       style="opacity:0.81;fill:#000000;fill-opacity:1"
       d="M 8 4 C 5.7908608 4 4 5.79085 4 8 C 4 10.20913 5.7908608 12 8 12 C 10.209139 12 12 10.20913 12 8 C 12 5.79085 10.209139 4 8 4 z M 8 5 C 9.6568543 5 11 6.34314 11 8 C 11 9.65685 9.6568543 11 8 11 C 6.3431456 11 5 9.65685 5 8 C 5 6.34314 6.3431456 5 8 5 z "
       id="path4559"
       transform="translate(0,284)" />
  </g>
</svg>
